<mxfile host="app.diagrams.net" modified="2021-03-03T14:46:54.986Z" agent="5.0 (Macintosh; Intel Mac OS X 10_15_7) AppleWebKit/537.36 (KHTML, like Gecko) Chrome/88.0.4324.192 Safari/537.36" etag="7l-ta7_5hqkiNEFvkgLQ" version="14.4.3" type="github">
  <diagram id="o-PoSIHYnbQtjXGlu8P7" name="Page-1">
    <mxGraphModel dx="1186" dy="649" grid="1" gridSize="10" guides="1" tooltips="1" connect="1" arrows="1" fold="1" page="1" pageScale="1" pageWidth="827" pageHeight="1169" math="0" shadow="0">
      <root>
        <mxCell id="0" />
        <mxCell id="1" parent="0" />
        <mxCell id="tbk8aGchaPdW1EQHRRRS-9" value="&lt;b&gt;&lt;font style=&quot;font-size: 14px&quot;&gt;Move a piece&lt;/font&gt;&lt;/b&gt;&lt;br&gt;A user should be able to move a given piece on the board" style="rounded=1;whiteSpace=wrap;html=1;fillColor=#e1d5e7;strokeColor=#9673a6;" parent="1" vertex="1">
          <mxGeometry x="40" y="80" width="160" height="80" as="geometry" />
        </mxCell>
        <mxCell id="tbk8aGchaPdW1EQHRRRS-10" value="&lt;span style=&quot;font-size: 14px&quot;&gt;&lt;b&gt;Choose&amp;nbsp;difficulty&lt;/b&gt;&lt;/span&gt;&lt;br&gt;Choose between X levels of difficulty. (maybe X ร X grid)" style="rounded=1;whiteSpace=wrap;html=1;fillColor=#d5e8d4;strokeColor=#82b366;gradientColor=#FF9999;" parent="1" vertex="1">
          <mxGeometry x="40" y="200" width="160" height="80" as="geometry" />
        </mxCell>
        <mxCell id="tbk8aGchaPdW1EQHRRRS-13" value="User interactions" style="text;html=1;strokeColor=none;fillColor=none;align=center;verticalAlign=middle;whiteSpace=wrap;rounded=0;fontStyle=1;fontSize=17;" parent="1" vertex="1">
          <mxGeometry x="330" y="20" width="180" height="20" as="geometry" />
        </mxCell>
        <mxCell id="tbk8aGchaPdW1EQHRRRS-17" value="&lt;span style=&quot;font-size: 14px&quot;&gt;&lt;b&gt;Get a hint&lt;/b&gt;&lt;/span&gt;&lt;br&gt;Choose a piece and get a hint for placement" style="rounded=1;whiteSpace=wrap;html=1;fillColor=#e1d5e7;strokeColor=#9673a6;" parent="1" vertex="1">
          <mxGeometry x="40" y="320" width="160" height="80" as="geometry" />
        </mxCell>
        <mxCell id="tbk8aGchaPdW1EQHRRRS-19" value="&lt;span style=&quot;font-size: 14px&quot;&gt;&lt;b&gt;Auto-solve&lt;/b&gt;&lt;/span&gt;&lt;br&gt;The puzzle will be solved by an algorithm" style="rounded=1;whiteSpace=wrap;html=1;fillColor=#e1d5e7;strokeColor=#9673a6;" parent="1" vertex="1">
          <mxGeometry x="440" y="80" width="160" height="80" as="geometry" />
        </mxCell>
        <mxCell id="tbk8aGchaPdW1EQHRRRS-21" value="&lt;span style=&quot;font-size: 14px&quot;&gt;&lt;b&gt;Play a game&lt;/b&gt;&lt;br&gt;Starts a game&lt;br&gt;&lt;/span&gt;" style="rounded=1;whiteSpace=wrap;html=1;fillColor=#d5e8d4;strokeColor=#82b366;" parent="1" vertex="1">
          <mxGeometry x="240" y="80" width="160" height="80" as="geometry" />
        </mxCell>
        <mxCell id="tbk8aGchaPdW1EQHRRRS-22" value="&lt;span style=&quot;font-size: 14px&quot;&gt;&lt;b&gt;Save game&lt;/b&gt;&lt;br&gt;Saves the game in its current state (name / picture)&lt;br&gt;&lt;/span&gt;" style="rounded=1;whiteSpace=wrap;html=1;fillColor=#e1d5e7;strokeColor=#9673a6;gradientColor=#CCFFFF;" parent="1" vertex="1">
          <mxGeometry x="240" y="200" width="160" height="80" as="geometry" />
        </mxCell>
        <mxCell id="tbk8aGchaPdW1EQHRRRS-23" value="&lt;span style=&quot;font-size: 14px&quot;&gt;&lt;b&gt;Load game&lt;/b&gt;&lt;br&gt;Load a game from a database (choose a name / picture)&lt;br&gt;&lt;/span&gt;" style="rounded=1;whiteSpace=wrap;html=1;fillColor=#d5e8d4;strokeColor=#82b366;gradientColor=#CCFFFF;" parent="1" vertex="1">
          <mxGeometry x="240" y="320" width="160" height="80" as="geometry" />
        </mxCell>
        <mxCell id="tbk8aGchaPdW1EQHRRRS-25" value="&lt;span style=&quot;font-size: 14px&quot;&gt;&lt;b&gt;Choose image&lt;/b&gt;&lt;br&gt;Upload an image and superimpose onto the puzzle&lt;br&gt;&lt;/span&gt;" style="rounded=1;whiteSpace=wrap;html=1;fillColor=#f8cecc;strokeColor=#b85450;" parent="1" vertex="1">
          <mxGeometry x="640" y="80" width="160" height="80" as="geometry" />
        </mxCell>
        <mxCell id="tbk8aGchaPdW1EQHRRRS-28" value="&lt;span style=&quot;font-size: 14px&quot;&gt;&lt;b&gt;Undo / Redo&lt;/b&gt;&lt;br&gt;Undo / Redo a move&lt;br&gt;&lt;/span&gt;" style="rounded=1;whiteSpace=wrap;html=1;fillColor=#e1d5e7;strokeColor=#9673a6;" parent="1" vertex="1">
          <mxGeometry x="440" y="200" width="160" height="80" as="geometry" />
        </mxCell>
        <mxCell id="tbk8aGchaPdW1EQHRRRS-30" value="&lt;span style=&quot;font-size: 14px&quot;&gt;&lt;b&gt;Quit&lt;/b&gt;&lt;br&gt;The user leaves the program&lt;br&gt;&lt;/span&gt;" style="rounded=1;whiteSpace=wrap;html=1;fillColor=#d5e8d4;strokeColor=#82b366;" parent="1" vertex="1">
          <mxGeometry x="640" y="200" width="160" height="80" as="geometry" />
        </mxCell>
        <mxCell id="tbk8aGchaPdW1EQHRRRS-33" value="&lt;span style=&quot;font-size: 14px&quot;&gt;&lt;b&gt;Settings&lt;/b&gt;&lt;br&gt;Change settings for the program&lt;br&gt;&lt;/span&gt;" style="rounded=1;whiteSpace=wrap;html=1;fillColor=#d5e8d4;strokeColor=#82b366;gradientColor=#FFFFCC;" parent="1" vertex="1">
          <mxGeometry x="440" y="320" width="160" height="80" as="geometry" />
        </mxCell>
        <mxCell id="tbk8aGchaPdW1EQHRRRS-34" value="&lt;span style=&quot;font-size: 14px&quot;&gt;&lt;b&gt;Rotate piece&lt;/b&gt;&lt;br&gt;Rotate a piece 90ยบ&lt;br&gt;1: Clockwise&lt;br&gt;2: Anti clockwise&lt;br&gt;&lt;/span&gt;" style="rounded=1;whiteSpace=wrap;html=1;fillColor=#e1d5e7;strokeColor=#9673a6;" parent="1" vertex="1">
          <mxGeometry x="640" y="320" width="160" height="80" as="geometry" />
        </mxCell>
        <mxCell id="tgSNxzn0pLUJQDwQrDUK-11" value="" style="group" vertex="1" connectable="0" parent="1">
          <mxGeometry x="40" y="560" width="760" height="120" as="geometry" />
        </mxCell>
        <mxCell id="tgSNxzn0pLUJQDwQrDUK-1" value="" style="rounded=1;whiteSpace=wrap;html=1;" vertex="1" parent="tgSNxzn0pLUJQDwQrDUK-11">
          <mxGeometry width="760" height="120" as="geometry" />
        </mxCell>
        <mxCell id="tgSNxzn0pLUJQDwQrDUK-2" value="" style="ellipse;whiteSpace=wrap;html=1;aspect=fixed;fillColor=#d5e8d4;strokeColor=#82b366;" vertex="1" parent="tgSNxzn0pLUJQDwQrDUK-11">
          <mxGeometry x="20" y="40" width="40" height="40" as="geometry" />
        </mxCell>
        <mxCell id="tgSNxzn0pLUJQDwQrDUK-3" value="Main menu diagram" style="text;html=1;strokeColor=none;fillColor=none;align=center;verticalAlign=middle;whiteSpace=wrap;rounded=0;" vertex="1" parent="tgSNxzn0pLUJQDwQrDUK-11">
          <mxGeometry x="70" y="50" width="40" height="20" as="geometry" />
        </mxCell>
        <mxCell id="tgSNxzn0pLUJQDwQrDUK-4" value="" style="ellipse;whiteSpace=wrap;html=1;aspect=fixed;fillColor=#d5e8d4;strokeColor=#82b366;gradientColor=#FF9999;" vertex="1" parent="tgSNxzn0pLUJQDwQrDUK-11">
          <mxGeometry x="130" y="40" width="40" height="40" as="geometry" />
        </mxCell>
        <mxCell id="tgSNxzn0pLUJQDwQrDUK-5" value="Game options diagram" style="text;html=1;strokeColor=none;fillColor=none;align=center;verticalAlign=middle;whiteSpace=wrap;rounded=0;" vertex="1" parent="tgSNxzn0pLUJQDwQrDUK-11">
          <mxGeometry x="180" y="50" width="40" height="20" as="geometry" />
        </mxCell>
        <mxCell id="tgSNxzn0pLUJQDwQrDUK-6" value="" style="ellipse;whiteSpace=wrap;html=1;aspect=fixed;fillColor=#d5e8d4;strokeColor=#82b366;gradientColor=#FFFFCC;" vertex="1" parent="tgSNxzn0pLUJQDwQrDUK-11">
          <mxGeometry x="240" y="40" width="40" height="40" as="geometry" />
        </mxCell>
        <mxCell id="tgSNxzn0pLUJQDwQrDUK-7" value="Settings diagram" style="text;html=1;strokeColor=none;fillColor=none;align=center;verticalAlign=middle;whiteSpace=wrap;rounded=0;" vertex="1" parent="tgSNxzn0pLUJQDwQrDUK-11">
          <mxGeometry x="290" y="50" width="40" height="20" as="geometry" />
        </mxCell>
        <mxCell id="tgSNxzn0pLUJQDwQrDUK-9" value="" style="ellipse;whiteSpace=wrap;html=1;aspect=fixed;fillColor=#e1d5e7;strokeColor=#9673a6;" vertex="1" parent="tgSNxzn0pLUJQDwQrDUK-11">
          <mxGeometry x="350" y="40" width="40" height="40" as="geometry" />
        </mxCell>
        <mxCell id="tgSNxzn0pLUJQDwQrDUK-10" value="In-game diagram" style="text;html=1;strokeColor=none;fillColor=none;align=center;verticalAlign=middle;whiteSpace=wrap;rounded=0;" vertex="1" parent="tgSNxzn0pLUJQDwQrDUK-11">
          <mxGeometry x="400" y="50" width="50" height="20" as="geometry" />
        </mxCell>
        <mxCell id="tgSNxzn0pLUJQDwQrDUK-13" value="" style="ellipse;whiteSpace=wrap;html=1;aspect=fixed;fillColor=#e1d5e7;strokeColor=#9673a6;gradientColor=#CCFFFF;" vertex="1" parent="tgSNxzn0pLUJQDwQrDUK-11">
          <mxGeometry x="460" y="40" width="40" height="40" as="geometry" />
        </mxCell>
        <mxCell id="tgSNxzn0pLUJQDwQrDUK-14" value="Save game diagram" style="text;html=1;strokeColor=none;fillColor=none;align=center;verticalAlign=middle;whiteSpace=wrap;rounded=0;" vertex="1" parent="tgSNxzn0pLUJQDwQrDUK-11">
          <mxGeometry x="510" y="50" width="50" height="20" as="geometry" />
        </mxCell>
        <mxCell id="tgSNxzn0pLUJQDwQrDUK-15" value="" style="ellipse;whiteSpace=wrap;html=1;aspect=fixed;fillColor=#d5e8d4;strokeColor=#82b366;gradientColor=#CCFFFF;" vertex="1" parent="tgSNxzn0pLUJQDwQrDUK-11">
          <mxGeometry x="570" y="40" width="40" height="40" as="geometry" />
        </mxCell>
        <mxCell id="tgSNxzn0pLUJQDwQrDUK-16" value="Load game diagram" style="text;html=1;strokeColor=none;fillColor=none;align=center;verticalAlign=middle;whiteSpace=wrap;rounded=0;" vertex="1" parent="tgSNxzn0pLUJQDwQrDUK-11">
          <mxGeometry x="620" y="50" width="50" height="20" as="geometry" />
        </mxCell>
        <mxCell id="tgSNxzn0pLUJQDwQrDUK-12" value="&lt;span style=&quot;font-size: 14px&quot;&gt;&lt;b&gt;Exit to main menu&lt;/b&gt;&lt;/span&gt;&lt;br&gt;Returns user to main menu" style="rounded=1;whiteSpace=wrap;html=1;fillColor=#e1d5e7;strokeColor=#9673a6;" vertex="1" parent="1">
          <mxGeometry x="40" y="440" width="160" height="80" as="geometry" />
        </mxCell>
        <mxCell id="9rt1nEuUYQW01Z7rHzFn-1" value="&lt;div&gt;&lt;b&gt;&lt;font style=&quot;font-size: 14px&quot;&gt;Select&lt;/font&gt;&lt;/b&gt;&lt;/div&gt;&lt;div&gt;User chooses a piece&lt;br&gt;&lt;/div&gt;" style="rounded=1;whiteSpace=wrap;html=1;fillColor=#e1d5e7;strokeColor=#9673a6;" vertex="1" parent="1">
          <mxGeometry x="240" y="440" width="160" height="80" as="geometry" />
        </mxCell>
        <mxCell id="tgSNxzn0pLUJQDwQrDUK-17" value="&lt;div&gt;&lt;span style=&quot;font-size: 14px&quot;&gt;&lt;b&gt;Help&lt;/b&gt;&lt;/span&gt;&lt;/div&gt;&lt;div&gt;Get a hint or auto-solve&lt;/div&gt;" style="rounded=1;whiteSpace=wrap;html=1;fillColor=#e1d5e7;strokeColor=#9673a6;" vertex="1" parent="1">
          <mxGeometry x="440" y="440" width="160" height="80" as="geometry" />
        </mxCell>
      </root>
    </mxGraphModel>
  </diagram>
</mxfile>
